<?xml version="1.0" encoding="UTF-8" standalone="no"?>
<!-- Created with Inkscape (http://www.inkscape.org/) -->
<svg
   xmlns:svg="http://www.w3.org/2000/svg"
   xmlns="http://www.w3.org/2000/svg"
   version="1.0"
   width="640"
   height="480"
   id="svg3173">
  <defs
     id="defs3175" />
  <g
     id="layer1">
    <path
       d="M 396.2695,301.87234 L 304.48445,246.86157 L 273.74883,349.36036 L 238.79764,248.22137 L 149.36784,306.98352 L 187.60457,207.04037 L 81.325787,194.57042 L 174.85903,142.58762 L 101.4603,64.720397 L 206.52482,85.021276 L 200.35021,-21.808276 L 267.78515,61.277272 L 331.72384,-24.527874 L 329.97564,82.465692 L 434.11,57.834132 L 363.99666,138.67224 L 459.60107,186.73965 L 353.92941,203.59724 L 396.2695,301.87234 z "
       transform="translate(5.1631208,77.446809)"
       style="opacity:0.96017701;fill:#ffff00;fill-opacity:1;fill-rule:nonzero;stroke:#e30000;stroke-width:6.17299986;stroke-linecap:round;stroke-linejoin:round;stroke-miterlimit:4;stroke-dasharray:none;stroke-opacity:1"
       id="path3181" />
    <path
       d="M -6.0470009,345.63922 L -6.0470009,242.5611 L 31.96299,189.34499 C 39.837933,189.34509 46.816217,243.60417 51.574093,245.69 C 56.331832,247.77604 60.058391,250.98697 62.75378,255.32281 C 65.449011,259.65884 66.796666,264.19399 66.796749,268.92828 C 66.796666,273.33461 65.601354,277.48304 63.210812,281.3736 C 60.820109,285.26428 57.210738,288.4049 52.382687,290.79547 C 58.616986,292.62365 63.40995,295.74083 66.761593,300.14703 C 70.113069,304.55332 71.788848,309.75644 71.788937,315.75641 C 71.788848,320.58456 70.769318,325.07284 68.730343,329.22125 C 66.691197,333.3697 64.171668,336.56892 61.171749,338.81891 C 58.171674,341.06891 54.409959,342.76813 49.886593,343.91656 C 45.363093,345.065 39.82013,345.63922 33.257687,345.63922 L -6.0470009,345.63922 z M 7.5936241,285.8736 L 29.882687,285.8736 C 35.929509,285.87366 40.265442,285.47522 42.890499,284.67828 C 46.359186,283.6471 48.972465,281.93616 50.730343,279.54547 C 52.488086,277.15491 53.366992,274.15492 53.367062,270.54547 C 53.366992,267.12367 52.54668,264.11196 50.906124,261.51031 C 49.265433,258.90884 46.921686,257.12759 43.874874,256.16656 C 40.827942,255.20572 35.601384,254.72525 28.195187,254.72516 L 7.5936241,254.72516 L 7.5936241,285.8736 z M 7.5936241,333.47516 L 33.257687,333.47516 C 37.663882,333.47517 40.757629,333.31111 42.538937,332.98297 C 45.679499,332.42048 48.304497,331.48299 50.413937,330.17047 C 52.523242,328.85799 54.257616,326.94783 55.617062,324.44 C 56.976363,321.93221 57.65605,319.03769 57.656124,315.75641 C 57.65605,311.91269 56.671676,308.57285 54.702999,305.73688 C 52.73418,302.90098 50.003714,300.9088 46.511593,299.76031 C 43.019346,298.61192 37.992007,298.03771 31.429562,298.03766 L 7.5936241,298.03766 L 7.5936241,333.47516 z M 86.554562,295.4361 C 86.554555,278.32679 91.1483,264.93227 100.33581,255.2525 C 109.52328,245.57292 121.38264,240.73308 135.91394,240.73297 C 145.4295,240.73308 154.00761,243.00651 161.64831,247.55328 C 169.28885,252.10025 175.11306,258.44009 179.12097,266.57281 C 183.12868,274.7057 185.13258,283.92835 185.13269,294.24078 C 185.13258,304.69395 183.02321,314.0455 178.80456,322.29547 C 174.58572,330.54549 168.60916,336.79157 160.87487,341.03375 C 153.14043,345.27594 144.79668,347.39703 135.84362,347.39703 C 126.14045,347.39703 103.52057,381.54455 95.879984,376.85705 C 88.239334,372.16956 96.398295,329.27986 92.460812,321.17047 C 88.523303,313.06113 86.554555,304.48301 86.554562,295.4361 L 86.554562,295.4361 z M 100.61706,295.64703 C 100.61704,308.06895 103.95688,317.85409 110.63659,325.0025 C 117.31624,332.15095 125.69514,335.72517 135.77331,335.72516 C 146.03887,335.72517 154.48808,332.1158 161.12097,324.89703 C 167.75369,317.67831 171.0701,307.43613 171.07019,294.17047 C 171.0701,285.77991 169.65213,278.45569 166.81628,272.19781 C 163.98026,265.94008 159.83183,261.08852 154.37097,257.64313 C 148.90996,254.19791 142.78106,252.47525 135.98425,252.47516 C 126.32795,252.47525 118.01937,255.79165 111.05847,262.42438 C 104.09751,269.05727 100.61704,280.13147 100.61706,295.64703 L 100.61706,295.64703 z M 198.49206,295.4361 C 198.49205,278.32679 203.0858,264.93227 212.27331,255.2525 C 221.46078,245.57292 233.32014,240.73308 247.85144,240.73297 C 257.367,240.73308 265.94511,243.00651 273.58581,247.55328 C 281.22635,252.10025 287.05056,258.44009 291.05847,266.57281 C 295.06618,274.7057 297.07008,283.92835 297.07019,294.24078 C 297.07008,304.69395 294.96071,314.0455 290.74206,322.29547 C 286.52322,330.54549 280.54666,336.79157 272.81237,341.03375 C 265.07793,345.27594 256.73418,347.39703 247.78112,347.39703 C 238.07795,347.39703 159.13496,384.12358 151.49437,379.43608 C 143.85372,374.74859 208.33579,329.27986 204.39831,321.17047 C 200.4608,313.06113 198.49205,304.48301 198.49206,295.4361 L 198.49206,295.4361 z M 212.55456,295.64703 C 212.55454,308.06895 215.89438,317.85409 222.57409,325.0025 C 229.25374,332.15095 237.63264,335.72517 247.71081,335.72516 C 257.97637,335.72517 266.42558,332.1158 273.05847,324.89703 C 279.69119,317.67831 283.0076,307.43613 283.00769,294.17047 C 283.0076,285.77991 281.58963,278.45569 278.75378,272.19781 C 275.91776,265.94008 271.76933,261.08852 266.30847,257.64313 C 260.84746,254.19791 254.71856,252.47525 247.92175,252.47516 C 238.26545,252.47525 229.95687,255.79165 222.99597,262.42438 C 216.03501,269.05727 212.55454,280.13147 212.55456,295.64703 L 212.55456,295.64703 z M 314.15612,345.63922 L 314.15612,242.5611 L 334.68737,242.5611 L 359.08581,315.54547 C 361.33575,322.34237 362.97638,327.4283 364.00769,330.80328 C 365.1795,327.0533 367.00762,321.5455 369.49206,314.27985 L 394.17175,242.5611 L 412.52331,242.5611 L 412.52331,345.63922 L 399.37487,345.63922 L 399.37487,259.36578 L 369.42175,345.63922 L 357.11706,345.63922 L 327.30456,257.88922 L 318.97562,380.80826 L 314.15612,345.63922 z M 439.80456,320.04547 L 435.93737,265.41266 L 435.93737,242.5611 L 451.61706,242.5611 C 464.42893,228.00795 474.17773,218.75528 451.61706,265.41266 L 447.96081,320.04547 L 439.80456,320.04547 z M 436.49987,345.63922 L 436.49987,331.22516 L 451.05456,331.22516 L 451.05456,345.63922 L 436.49987,345.63922 z "
       transform="matrix(0.9730838,-0.2304515,0.2304515,0.9730838,0,0)"
       style="font-size:144px;font-style:normal;font-weight:normal;fill:#000000;fill-opacity:1;stroke:none;stroke-width:1px;stroke-linecap:butt;stroke-linejoin:miter;stroke-opacity:1;font-family:Bitstream Vera Sans"
       id="text3183" />
  </g>
</svg>
