<?xml version="1.0" encoding="UTF-8" standalone="no"?>
<!-- Created with Inkscape (http://www.inkscape.org/) -->
<svg
   xmlns:svg="http://www.w3.org/2000/svg"
   xmlns="http://www.w3.org/2000/svg"
   version="1.0"
   width="640"
   height="480"
   id="svg2160">
  <defs
     id="defs2162" />
  <path
     d="M 82.811526,375.51755 L 172.89651,380.03158 C 172.89651,380.03158 148.12314,337.14836 175.14863,296.52215 L 276.49423,296.52215 C 299.01547,352.94744 276.49423,384.5456 276.49423,384.5456 L 364.32709,384.5456 C 364.32709,384.5456 368.83134,337.14836 377.83984,296.52215 C 386.8085,256.07557 472.42906,301.03617 472.42906,301.03617 C 490.44606,343.9194 483.68969,384.5456 483.68969,384.5456 L 560.26192,382.28859 L 546.74917,273.95203 L 476.93331,222.04076 C 452.15995,210.75571 420.6302,217.52674 420.6302,217.52674 C 420.6302,217.52674 433.82662,149.0273 416.12595,134.01731 C 386.84834,109.19018 236.33086,68.753265 211.18262,131.7603 C 206.67837,143.04535 172.89651,233.32582 172.89651,233.32582 C 172.89651,233.32582 79.235123,261.13224 73.803029,267.181 C 53.533908,289.75111 85.063648,377.77457 82.811526,375.51755 z M 196.19858,224.42553 L 229.75887,136.65248 L 302.04255,136.65248 L 283.97163,232.17021 L 196.19858,224.42553 z M 327.85816,136.65248 L 389.8156,144.39716 L 394.97873,234.75178 L 322.69504,229.58865 L 327.85816,136.65248 z "
     style="fill:#008000;fill-rule:evenodd;stroke:#000000;stroke-width:6.17299986;stroke-linecap:butt;stroke-linejoin:round;stroke-miterlimit:4;stroke-dasharray:none;stroke-opacity:1"
     id="chassis" />
  <path
     d="M 197.48936,314.78014 C 197.48936,314.78014 158.16821,339.99799 197.48936,379.31915 C 212.97872,394.80851 240.19221,414.7395 259.44681,384.48227 C 277.51773,356.08511 256.86525,314.78014 256.86525,314.78014 C 256.86525,314.78014 236.21277,296.70922 197.48936,314.78014 z "
     style="fill:#999999;fill-rule:evenodd;stroke:#000000;stroke-width:7.9000001;stroke-linecap:butt;stroke-linejoin:miter;stroke-miterlimit:4;stroke-dasharray:none;stroke-opacity:1"
     id="wheel1" />
  <path
     d="M 459.12338,314.38292 C 459.12338,314.38292 428.37851,279.2141 395.29111,323.90783 C 382.25734,341.51356 366.56088,371.37054 399.32845,385.94881 C 430.08162,399.63089 467.88631,373.10861 467.88631,373.10861 C 467.88631,373.10861 482.71137,350.01531 459.12338,314.38292 z "
     style="fill:#999999;fill-rule:evenodd;stroke:#000000;stroke-width:7.9000001;stroke-linecap:butt;stroke-linejoin:miter;stroke-miterlimit:4;stroke-dasharray:none;stroke-opacity:1"
     id="wheel2" />
</svg>
